<svg width="25" height="25" viewBox="0 0 25 25" fill="none" xmlns="http://www.w3.org/2000/svg">
<path d="M14.8333 11.2883C14.2267 11.2883 13.7367 11.9021 13.7367 12.6549C13.7367 13.4077 14.2267 14.0215 14.8333 14.0215C15.44 14.0215 15.93 13.4077 15.93 12.6549C15.93 11.9021 15.44 11.2883 14.8333 11.2883ZM10.1667 11.2883C9.56 11.2883 9.07 11.9021 9.07 12.6549C9.07 13.4077 9.56 14.0215 10.1667 14.0215C10.7733 14.0215 11.2633 13.4077 11.2633 12.6549C11.2633 11.9021 10.7733 11.2883 10.1667 11.2883ZM14.8333 11.2883C14.2267 11.2883 13.7367 11.9021 13.7367 12.6549C13.7367 13.4077 14.2267 14.0215 14.8333 14.0215C15.44 14.0215 15.93 13.4077 15.93 12.6549C15.93 11.9021 15.44 11.2883 14.8333 11.2883ZM10.1667 11.2883C9.56 11.2883 9.07 11.9021 9.07 12.6549C9.07 13.4077 9.56 14.0215 10.1667 14.0215C10.7733 14.0215 11.2633 13.4077 11.2633 12.6549C11.2633 11.9021 10.7733 11.2883 10.1667 11.2883ZM19.5 2H5.5C3.56333 2 2 3.55191 2 5.47442V19.3721C2 21.2946 3.56333 22.8465 5.5 22.8465H18.3333L17.89 21.2136L21.4017 24.7227C21.9967 25.3134 23 24.8964 23 24.0742V5.47442C23 3.55191 21.4367 2 19.5 2ZM18.9983 15.5966C17.4 17.0442 15.3117 17.0558 15.3117 17.0558L14.81 16.3841C15.3233 16.2104 15.7667 15.9788 16.2217 15.6313L16.1167 15.3534C15.2767 15.7355 14.1917 15.9672 12.5 15.9672C10.8083 15.9672 9.72333 15.7355 8.88333 15.3534L8.77833 15.6313C9.23333 15.9788 9.67667 16.2104 10.19 16.3841L9.68833 17.0558C9.68833 17.0558 7.6 17.0442 6.00167 15.5966C5.745 15.3649 5.64 15.0059 5.66333 14.6701C5.955 11.323 6.99333 9.29629 7.36667 8.67089C7.44833 8.52033 7.565 8.40452 7.705 8.30028C8.14833 8.01075 9.25667 7.36219 10.6217 7.22321L10.9717 7.92968C11.4733 7.83703 12.0217 7.76754 12.5 7.76754C12.9667 7.76754 13.5033 7.83703 14.0283 7.92968L14.3783 7.22321C15.685 7.32745 16.84 7.99917 17.295 8.30028C17.435 8.40452 17.5517 8.52033 17.6333 8.67089C18.0067 9.30787 19.045 11.323 19.3367 14.6701C19.36 15.0059 19.255 15.3649 18.9983 15.5966ZM14.8333 11.2883C14.2267 11.2883 13.7367 11.9021 13.7367 12.6549C13.7367 13.4077 14.2267 14.0215 14.8333 14.0215C15.44 14.0215 15.93 13.4077 15.93 12.6549C15.93 11.9021 15.44 11.2883 14.8333 11.2883ZM10.1667 11.2883C9.56 11.2883 9.07 11.9021 9.07 12.6549C9.07 13.4077 9.56 14.0215 10.1667 14.0215C10.7733 14.0215 11.2633 13.4077 11.2633 12.6549C11.2633 11.9021 10.7733 11.2883 10.1667 11.2883Z" fill="#A4A4A4"/>
</svg>
