<svg width="24" height="25" viewBox="0 0 24 25" fill="none" xmlns="http://www.w3.org/2000/svg">
<path d="M7.55556 2C4.48778 2 2 4.61217 2 7.83333V17.1667C2 20.3878 4.48778 23 7.55556 23H16.4444C19.5122 23 22 20.3878 22 17.1667V7.83333C22 4.61217 19.5122 2 16.4444 2H7.55556ZM18.6667 4.33333C19.28 4.33333 19.7778 4.856 19.7778 5.5C19.7778 6.144 19.28 6.66667 18.6667 6.66667C18.0533 6.66667 17.5556 6.144 17.5556 5.5C17.5556 4.856 18.0533 4.33333 18.6667 4.33333ZM12 6.66667C15.0678 6.66667 17.5556 9.27883 17.5556 12.5C17.5556 15.7212 15.0678 18.3333 12 18.3333C8.93222 18.3333 6.44444 15.7212 6.44444 12.5C6.44444 9.27883 8.93222 6.66667 12 6.66667ZM12 9C11.1159 9 10.2681 9.36875 9.64298 10.0251C9.01786 10.6815 8.66667 11.5717 8.66667 12.5C8.66667 13.4283 9.01786 14.3185 9.64298 14.9749C10.2681 15.6313 11.1159 16 12 16C12.8841 16 13.7319 15.6313 14.357 14.9749C14.9821 14.3185 15.3333 13.4283 15.3333 12.5C15.3333 11.5717 14.9821 10.6815 14.357 10.0251C13.7319 9.36875 12.8841 9 12 9Z" fill="#A4A4A4"/>
</svg>
