<svg width="25" height="25" viewBox="0 0 25 25" fill="none" xmlns="http://www.w3.org/2000/svg">
<path d="M20.6667 2H4.33333C3.04417 2 2 3.04417 2 4.33333V20.6667C2 21.9558 3.04417 23 4.33333 23H20.6667C21.9558 23 23 21.9558 23 20.6667V4.33333C23 3.04417 21.9558 2 20.6667 2ZM7.52767 18.3333C6.7145 18.3333 6.05533 17.6742 6.05533 16.861V11.6378C6.0565 10.8258 6.71567 10.1667 7.52767 10.1667C8.34083 10.1667 9 10.8258 9 11.639V16.8622C9 17.6742 8.34083 18.3333 7.52767 18.3333ZM7.47633 8.66983C6.57683 8.66983 5.976 8.07017 5.976 7.26983C5.976 6.4695 6.57567 5.86983 7.5755 5.86983C8.475 5.86983 9.07583 6.4695 9.07583 7.26983C9.07583 8.07017 8.47617 8.66983 7.47633 8.66983ZM18.0755 18.3333C17.2892 18.3333 16.651 17.6952 16.651 16.9088V13.8697C16.651 12.6353 15.8915 12.5 15.6068 12.5C15.3222 12.5 14.3725 12.5408 14.3725 13.8697V16.9088C14.3725 17.6952 13.7343 18.3333 12.948 18.3333H12.8535C12.0672 18.3333 11.429 17.6952 11.429 16.9088V11.639C11.429 10.8258 12.0882 10.1667 12.9013 10.1667C13.7145 10.1667 14.3737 10.8258 14.3737 11.639C14.3737 11.639 14.7027 10.1667 16.938 10.1667C18.3602 10.1667 19.5 11.3065 19.5 13.8697V16.9088C19.5 17.6952 18.8618 18.3333 18.0755 18.3333Z" fill="#A4A4A4"/>
</svg>
